<svg xmlns="http://www.w3.org/2000/svg" viewBox="0 0 64 64">
  <defs>
    <linearGradient id="brandGrad" x1="0%" y1="0%" x2="100%" y2="100%">
      <stop offset="0%" style="stop-color:#8b5cf6;stop-opacity:1" />
      <stop offset="100%" style="stop-color:#6d28d9;stop-opacity:1" />
    </linearGradient>
  </defs>
  <circle cx="32" cy="32" r="30" fill="url(#brandGrad)" />
  <path fill="#ffffff" d="M44.5,26.5c0.6-4.1-2.5-6.3-6.8-7.7l1.4-5.6l-3.4-0.8l-1.4,5.6 c-0.9-0.2-1.8-0.4-2.7-0.7l1.4-5.6l-3.4-0.8l-1.4,5.6c-0.7-0.2-1.5-0.3-2.2-0.5l0,0l-4.7-1.2l-0.9,3.6 c0,0,2.5,0.6,2.5,0.6 c1.4,0.3,1.6,1.2,1.6,1.9l-1.6,6.4c0.1,0,0.2,0,0.3,0c-0.1,0-0.2,0-0.3,0l-2.2,8.9c-0.2,0.4-0.6,1.1-1.6,0.8 c0,0-2.5-0.6-2.5-0.6l-1.7,3.9l4.4,1.1c0.8,0.2,1.6,0.4,2.5,0.6l-1.4,5.7l3.4,0.8l1.4-5.6c0.9,0.2,1.8,0.4,2.7,0.6l-1.4,5.7 l3.4,0.8l1.4-5.6c5.8,1.1,10.2,0.7,12.1-4.6c1.5-4.3-0.1-6.8-3.2-8.4C44,30.3,44.8,28.8,44.5,26.5z M38.3,37.3 c-1.1,4.3-8.3,2-10.7,1.4l1.9-7.6C31.9,31.7,39.5,32.7,38.3,37.3z M39.4,25.8c-1,4-7.2,1.9-9.2,1.4l1.7-6.9 C33.9,20.8,40.5,21.6,39.4,25.8z"/>
</svg>
